<?xml version="1.0" standalone="no"?>
<!DOCTYPE svg PUBLIC "-//W3C//DTD SVG 20010904//EN"
 "http://www.w3.org/TR/2001/REC-SVG-20010904/DTD/svg10.dtd">
<svg version="1.0" xmlns="http://www.w3.org/2000/svg"
 width="500.000000pt" height="500.000000pt" viewBox="0 0 500.000000 500.000000"
 preserveAspectRatio="xMidYMid meet">

<g transform="translate(0.000000,500.000000) scale(0.100000,-0.100000)"
fill="#34495e" stroke="none">
<path d="M771 4632 c-60 -30 -76 -62 -76 -155 0 -73 4 -90 33 -149 36 -74 83
-119 149 -144 40 -16 46 -16 88 0 70 27 88 66 83 174 -5 97 -24 145 -84 212
-36 40 -106 80 -140 80 -10 0 -34 -8 -53 -18z"/>
<path d="M1220 4503 c-62 -43 -85 -107 -78 -211 15 -209 216 -297 297 -129 42
88 22 237 -42 305 -49 53 -129 68 -177 35z"/>
<path d="M410 4360 c-19 -5 -47 -22 -62 -39 -36 -40 -38 -111 -7 -172 68 -135
260 -227 352 -170 67 41 84 130 41 212 -55 108 -219 193 -324 169z"/>
<path d="M986 4016 c-96 -36 -136 -103 -167 -274 -19 -105 -19 -119 -6 -222
12 -91 19 -116 38 -137 77 -81 200 -68 268 30 55 81 135 135 260 178 122 43
200 110 208 182 5 41 2 48 -32 86 -43 47 -185 122 -280 147 -88 23 -241 28
-289 10z"/>
<path d="M2243 3900 c-47 -28 -67 -73 -66 -150 2 -124 71 -243 168 -290 105
-51 195 21 195 157 0 61 -33 156 -71 204 -70 89 -159 120 -226 79z"/>
<path d="M438 3868 c-22 -6 -50 -24 -68 -44 -93 -106 36 -287 214 -301 150
-12 220 95 147 222 -34 60 -85 97 -160 119 -61 18 -79 18 -133 4z"/>
<path d="M2733 3789 c-68 -20 -123 -132 -109 -222 13 -80 27 -117 58 -153 123
-139 281 -42 266 165 -8 103 -51 173 -130 206 -42 17 -41 17 -85 4z"/>
<path d="M1870 3622 c-96 -52 -87 -175 21 -284 84 -84 191 -122 266 -93 115
44 116 184 0 295 -87 84 -216 121 -287 82z"/>
<path d="M2455 3282 c-84 -41 -125 -113 -151 -265 -14 -80 -14 -114 -5 -207
12 -129 27 -162 86 -190 83 -40 158 -14 231 79 50 64 92 97 164 129 162 72
204 95 244 132 97 90 62 174 -111 260 -110 54 -176 71 -303 76 -99 4 -121 2
-155 -14z"/>
<path d="M1894 3134 c-69 -34 -87 -127 -40 -207 47 -81 138 -132 236 -131 92
0 146 42 157 121 7 52 -21 108 -82 161 -76 67 -198 92 -271 56z"/>
<path d="M2360 2252 c-47 -23 -80 -89 -80 -158 0 -117 65 -228 163 -278 52
-27 60 -28 96 -17 48 14 88 59 97 107 24 129 -51 291 -160 343 -52 26 -71 26
-116 3z"/>
<path d="M2797 2122 c-63 -39 -85 -161 -51 -283 45 -159 218 -191 285 -53 19
39 21 56 16 118 -11 120 -43 188 -109 222 -37 19 -107 17 -141 -4z"/>
<path d="M1981 1973 c-79 -41 -96 -115 -48 -209 51 -101 169 -176 279 -178 56
-1 61 1 93 36 66 72 53 159 -38 255 -87 92 -213 135 -286 96z"/>
<path d="M2575 1639 c-104 -39 -160 -147 -180 -350 -7 -75 10 -219 31 -260 30
-59 97 -88 172 -74 29 5 52 23 111 86 83 88 138 126 249 170 109 43 158 74
193 122 25 35 30 49 26 81 -15 109 -246 222 -472 232 -60 2 -112 -1 -130 -7z"/>
<path d="M3833 1520 c-46 -28 -67 -74 -67 -145 0 -191 166 -356 293 -291 51
27 66 62 66 151 -1 121 -51 218 -143 276 -54 34 -103 37 -149 9z"/>
<path d="M1993 1480 c-46 -28 -66 -64 -65 -117 1 -119 150 -235 282 -220 64 8
97 25 120 62 25 41 25 95 1 144 -59 115 -246 188 -338 131z"/>
<path d="M4325 1413 c-42 -11 -74 -44 -95 -101 -29 -77 -24 -157 14 -235 61
-126 205 -144 271 -35 40 66 19 242 -37 314 -22 27 -91 64 -118 63 -8 -1 -24
-4 -35 -6z"/>
<path d="M3453 1241 c-120 -76 -58 -257 121 -350 98 -52 204 -39 242 31 35 62
5 164 -69 238 -86 87 -225 125 -294 81z"/>
<path d="M4075 915 c-37 -10 -61 -25 -95 -61 -53 -56 -73 -110 -93 -249 -15
-109 -2 -262 28 -313 24 -40 77 -66 136 -65 43 1 109 27 109 44 0 4 21 31 48
60 62 69 143 121 251 159 182 65 253 178 169 267 -61 65 -217 132 -365 158
-102 18 -122 18 -188 0z"/>
<path d="M3469 747 c-140 -94 5 -332 201 -329 209 3 221 220 18 321 -80 40
-167 43 -219 8z"/>
</g>
</svg>
