    <svg
      xmlns="http://www.w3.org/2000/svg"
      xmlns:xlink="http://www.w3.org/1999/xlink"
      version="1.1"
      viewBox="0 0 1024 1024"
      width="512"
    >
      <symbol id="eye" viewBox="0, 0, 420, 420">
        <circle cx="210" cy="80" r="210" fill="black" />
        <circle cx="223" cy="50" r="156" fill="white" />
      </symbol>
      <rect x="0" y="0" width="1024" height="1024" fill="#fff" />
      <use
        xmlns:xlink="http://www.w3.org/1999/xlink"
        xlink:href="#eye"
        x="22"
        y="0"
        width="420"
      />
      <use
        xmlns:xlink="http://www.w3.org/1999/xlink"
        xlink:href="#eye"
        x="585"
        y="0"
        width="420"
      />
      <path
        stroke-width="13"
        stroke="black"
        fill="#fff"
        d="
		m 400 680
		c 0 0 106 55 212 0
		l 10 -120
		h -232
		l 10 120
	"
      />
      <ellipse cx="508" cy="538" rx="110" ry="80" fill="black" />
      <path
        stroke-linecap="round"
        stroke-width="13"
        stroke="black"
        fill="#fff"
        d="
		m 400 543
		c 20 -107 197 -107 213 0
		v 130
		c 0 10 -5 125 120 135
		c 0 0 150 0 100 -200
		c 0 0 -30 -240 -326 -240
		c -296 0 -326 240 -326 240
		c 0 0 -50 200 100 200
		c 120 -10 120 -125 119 -135
		z
	"
      />
    </svg>
