<?xml version="1.0" standalone="no"?>
<!DOCTYPE svg PUBLIC "-//W3C//DTD SVG 20010904//EN"
 "http://www.w3.org/TR/2001/REC-SVG-20010904/DTD/svg10.dtd">
<svg version="1.0" xmlns="http://www.w3.org/2000/svg"
 width="500.000000pt" height="500.000000pt" viewBox="0 0 255.000000 255.000000"
 preserveAspectRatio="xMidYMid meet">
<metadata>
Created by potrace 1.16, written by Peter Selinger 2001-2019
</metadata>
<g transform="translate(0.000000,197.000000) scale(0.100000,-0.100000)"
fill="#34495e" stroke="none">
<path d="M1210 1904 c-14 -2 -52 -9 -85 -15 -128 -23 -228 -75 -331 -174 -64
-61 -111 -86 -205 -110 -107 -27 -169 -79 -290 -241 -37 -50 -88 -115 -113
-144 -65 -77 -96 -142 -96 -206 0 -76 12 -98 101 -191 93 -97 154 -188 205
-304 43 -99 50 -109 76 -109 35 0 66 47 84 126 14 64 15 98 6 242 -9 161 -9
171 15 277 53 232 93 281 266 319 19 5 27 13 27 29 1 37 36 103 67 125 46 32
132 37 227 13 44 -12 81 -21 83 -21 10 0 1 123 -13 170 -23 79 -23 95 1 95 27
0 45 -40 45 -106 0 -99 12 -179 26 -179 7 0 28 25 46 57 54 93 78 113 135 113
37 0 70 -10 132 -40 81 -39 84 -40 195 -40 63 0 127 -3 145 -6 34 -7 81 -48
81 -71 0 -8 20 -37 45 -65 24 -27 63 -77 85 -111 43 -67 51 -111 28 -173 -11
-31 -9 -36 29 -87 44 -57 101 -92 134 -82 44 14 65 71 84 229 22 187 18 236
-22 279 -16 18 -38 45 -48 61 -30 49 -97 116 -161 162 -49 35 -70 44 -103 44
-30 0 -71 15 -151 55 -60 30 -118 55 -128 55 -11 0 -27 -9 -37 -20 -23 -25
-65 -26 -113 -1 -20 10 -62 24 -92 31 -55 12 -333 22 -380 14z"/>
<path d="M1770 1546 c0 -3 23 -26 50 -52 38 -36 54 -60 65 -99 17 -56 51 -94
102 -114 60 -24 78 -55 78 -131 0 -49 -5 -73 -17 -86 -11 -13 -18 -48 -23
-114 -8 -97 -27 -155 -48 -147 -7 3 -10 11 -7 18 2 8 4 55 4 105 0 82 -3 98
-29 145 -21 39 -31 79 -39 144 -16 130 -43 112 -45 -30 -1 -62 3 -75 29 -114
25 -36 30 -54 30 -102 0 -32 -4 -60 -9 -64 -6 -3 -28 21 -50 54 -46 67 -58 78
-73 63 -7 -7 -2 -21 17 -46 33 -44 61 -115 70 -184 5 -36 13 -55 25 -62 12 -7
21 -27 26 -58 10 -69 23 -87 25 -32 2 86 27 121 64 90 34 -28 -1 -264 -63
-429 -11 -30 28 9 47 48 35 68 51 137 66 276 8 77 21 201 30 275 8 74 16 162
17 195 3 54 6 61 31 73 19 10 27 20 27 40 0 33 -17 59 -93 143 -31 35 -76 93
-100 129 l-42 65 -82 3 c-46 2 -83 1 -83 -2z"/>
<path d="M1653 1445 c-50 -25 -71 -53 -58 -75 9 -15 37 -12 63 6 20 14 23 14
29 -2 5 -13 -4 -27 -31 -50 -37 -32 -37 -33 -21 -58 16 -24 23 -26 87 -26 64
0 72 3 99 29 37 38 38 76 1 127 -57 78 -92 88 -169 49z"/>
<path d="M760 1320 c-19 -10 -50 -34 -68 -53 -27 -28 -35 -47 -44 -103 -6 -38
-17 -94 -26 -124 -22 -81 -33 -540 -14 -595 14 -42 48 -85 67 -85 30 0 49 30
60 96 l11 69 38 3 c46 4 64 -11 107 -87 34 -60 122 -152 169 -176 51 -26 36 5
-25 52 -56 44 -119 128 -130 175 -8 33 -18 41 -86 76 -78 39 -108 98 -109 208
0 46 -6 100 -15 124 -8 23 -15 46 -15 49 0 4 16 34 35 66 31 51 35 64 29 102
-7 49 4 83 53 161 18 29 33 55 33 57 0 11 -37 3 -70 -15z"/>
<path d="M902 1275 c-18 -15 -39 -40 -48 -56 -19 -37 -9 -94 19 -114 35 -25
116 -19 178 13 51 26 54 29 57 70 4 49 -11 55 -33 12 -19 -37 -23 -37 -36 -3
-8 22 -6 30 13 50 30 32 14 46 -60 51 -52 4 -61 1 -90 -23z"/>
<path d="M1355 927 c-52 -54 -65 -84 -65 -155 0 -45 64 -156 116 -201 33 -29
40 -31 82 -25 42 6 45 5 32 -9 -25 -26 -118 -57 -199 -68 -111 -14 -161 0
-220 62 -44 46 -71 61 -71 40 0 -6 5 -13 10 -16 6 -3 10 -13 10 -22 0 -34 94
-164 170 -235 64 -60 80 -80 80 -104 0 -16 4 -34 8 -41 4 -7 52 -28 105 -48
141 -50 233 -46 318 17 67 50 121 153 90 172 -9 6 -94 -56 -120 -87 -7 -10
-38 -24 -68 -33 -93 -27 -184 -3 -254 67 -44 44 -96 146 -82 160 14 14 179 47
301 61 111 12 113 12 135 -10 16 -17 22 -34 22 -71 0 -58 4 -64 39 -55 24 6
26 10 26 68 0 52 5 69 35 116 29 44 35 64 35 107 0 59 -14 71 -24 21 -3 -18
-16 -45 -29 -60 -21 -26 -26 -27 -136 -30 -84 -2 -115 0 -118 10 -3 8 5 12 24
12 25 0 31 8 56 61 41 87 57 137 57 175 0 55 -29 113 -73 145 -38 27 -45 29
-140 29 l-101 0 -51 -53z"/>
</g>
</svg>
