<?xml version="1.0" standalone="no"?>
<!DOCTYPE svg PUBLIC "-//W3C//DTD SVG 20010904//EN"
 "http://www.w3.org/TR/2001/REC-SVG-20010904/DTD/svg10.dtd">
<svg version="1.0" xmlns="http://www.w3.org/2000/svg"
 width="50.000000pt" height="50.000000pt" viewBox="0 0 512.000000 512.000000"
 preserveAspectRatio="xMidYMid meet">

<g transform="translate(0.000000,512.000000) scale(0.100000,-0.100000)"
fill="#424242" stroke="none">
<path d="M2479 4810 c-461 -78 -830 -455 -914 -934 -19 -113 -19 -308 0 -422
85 -485 466 -866 934 -935 108 -15 290 -6 397 20 107 26 244 86 331 144 599
398 698 1266 204 1789 -172 182 -362 289 -591 332 -86 17 -279 20 -361 6z"/>
<path d="M790 2595 c0 -3 -54 -247 -121 -542 -130 -580 -117 -539 -309 -1028
-54 -137 -101 -272 -104 -300 -20 -156 89 -335 241 -397 57 -23 62 -23 521
-26 372 -2 463 0 467 10 2 7 18 222 35 478 17 256 33 475 36 487 4 22 5 22
207 20 195 -2 204 -1 250 22 57 27 114 95 162 191 33 66 78 195 90 262 l7 36
-104 32 c-56 17 -153 47 -215 67 l-112 35 -77 103 c-61 82 -83 104 -107 109
-17 4 -48 11 -68 16 l-38 11 -67 204 c-37 113 -71 202 -75 198 -4 -5 -38 -84
-74 -176 -45 -112 -72 -167 -80 -163 -7 2 -62 12 -122 22 l-109 17 -113 159
c-104 145 -121 167 -121 153z m604 -676 c48 -38 23 -109 -38 -109 -58 0 -90
59 -55 103 25 32 57 34 93 6z"/>
<path d="M2035 2450 c-75 -20 -330 -106 -353 -119 -10 -6 3 -12 39 -21 30 -7
62 -17 71 -22 10 -5 51 -53 92 -107 l75 -98 88 -27 c48 -15 165 -52 260 -82
l172 -55 -5 -32 c-65 -364 -179 -600 -339 -702 -73 -47 -114 -57 -270 -69
l-140 -11 -25 -360 c-22 -319 -23 -361 -10 -366 8 -4 62 -14 120 -23 653 -101
1417 -80 2007 55 243 55 464 131 668 229 325 156 405 261 369 480 -68 421
-374 795 -874 1067 -69 38 -273 133 -285 133 -3 0 -5 -83 -5 -185 l0 -185 23
0 c43 0 143 -59 195 -114 87 -91 151 -248 187 -454 19 -112 38 -411 29 -471
-20 -141 -140 -260 -264 -261 -25 0 -54 -7 -64 -15 -32 -24 -74 -18 -107 14
-16 16 -29 39 -29 51 0 29 26 76 45 84 26 10 83 7 90 -4 9 -14 70 -12 108 4
39 16 82 61 96 99 14 36 14 269 0 395 -27 253 -104 451 -204 528 -38 29 -112
54 -160 54 -57 0 -131 -29 -177 -70 -127 -111 -203 -403 -196 -750 l3 -158 31
-39 c17 -21 46 -46 65 -56 34 -18 47 -18 154 -1 52 7 83 -16 92 -68 5 -32 1
-41 -25 -68 -34 -33 -76 -40 -108 -15 -10 8 -39 15 -65 15 -91 0 -196 78 -243
179 -19 42 -21 62 -19 211 3 378 73 643 209 790 57 61 155 120 201 120 l23 0
0 210 0 209 -112 35 c-62 19 -139 42 -172 50 l-58 15 -58 -40 c-316 -215 -728
-205 -1055 25 -17 12 -29 12 -90 -4z"/>
</g>
</svg>
