<?xml version="1.0" standalone="no"?>
<!DOCTYPE svg PUBLIC "-//W3C//DTD SVG 20010904//EN"
 "http://www.w3.org/TR/2001/REC-SVG-20010904/DTD/svg10.dtd">
<svg version="1.0" xmlns="http://www.w3.org/2000/svg"
 width="1355.000000pt" height="1500.000000pt" viewBox="0 0 1355.000000 1500.000000"
 preserveAspectRatio="xMidYMid meet">

<g transform="translate(0.000000,1500.000000) scale(0.100000,-0.100000)"
fill="#424242" stroke="none">
<path d="M6400 14614 c-156 -18 -221 -28 -330 -50 -719 -142 -1368 -544 -1823
-1129 -178 -229 -366 -569 -462 -840 -250 -698 -238 -1480 32 -2160 268 -676
740 -1212 1379 -1569 345 -193 768 -324 1183 -366 150 -15 475 -12 631 5 611
69 1173 310 1645 707 114 96 330 317 418 428 335 420 555 924 638 1460 30 193
37 590 15 790 -150 1313 -1100 2374 -2381 2661 -225 50 -328 61 -625 64 -157
2 -301 1 -320 -1z"/>
<path d="M4605 8454 c-38 -13 -136 -49 -217 -80 -133 -51 -156 -63 -225 -122
-429 -361 -780 -900 -977 -1495 -115 -348 -193 -773 -212 -1164 l-7 -131 44
-7 c468 -73 871 -428 1130 -995 159 -347 236 -693 264 -1176 l6 -101 -150
-127 -149 -126 20 -53 c36 -94 10 -197 -70 -269 -92 -83 -232 -83 -324 0 -76
68 -102 158 -74 253 40 140 187 213 326 163 l45 -16 123 83 123 84 -5 160 c-3
88 -15 222 -26 297 -122 819 -551 1444 -1107 1615 -81 25 -102 27 -263 27
-154 1 -185 -2 -255 -22 -597 -172 -1046 -861 -1140 -1747 -8 -77 -15 -183
-15 -235 l1 -95 113 -77 c107 -73 115 -77 147 -68 116 34 238 -21 295 -132 26
-49 29 -131 9 -185 -64 -167 -269 -221 -397 -105 -94 84 -113 221 -45 316 18
25 18 30 6 40 -8 6 -70 58 -137 114 l-121 104 5 101 c18 362 64 625 159 912
210 630 608 1085 1071 1225 l72 21 6 107 c42 670 182 1236 430 1732 140 280
329 555 522 759 36 39 64 71 62 71 -11 0 -263 -139 -378 -208 -1634 -982
-2695 -2667 -2950 -4684 l-21 -167 59 -88 c430 -640 1030 -1195 1732 -1603
986 -573 2204 -913 3635 -1015 635 -45 1356 -41 1995 10 1513 123 2822 535
3810 1200 546 368 1013 825 1385 1355 l95 135 -6 50 c-149 1328 -670 2514
-1548 3525 -142 164 -465 483 -641 634 -346 297 -759 580 -1147 786 -73 39
-134 70 -136 70 -3 0 31 -37 74 -82 453 -473 799 -1117 964 -1792 17 -65 31
-120 32 -121 2 -1 36 -8 77 -15 552 -95 901 -648 751 -1188 -73 -261 -263
-485 -512 -601 -288 -135 -626 -116 -899 51 -110 68 -248 206 -313 316 -56 94
-110 244 -127 352 -15 100 -6 275 20 375 59 222 203 421 398 551 77 52 234
124 268 124 19 0 20 -9 -16 133 -135 537 -385 1039 -735 1477 -132 164 -398
434 -552 558 -128 104 -304 232 -319 232 -5 0 -468 -812 -1029 -1805 -560
-992 -1021 -1801 -1025 -1797 -3 4 -437 813 -964 1797 -527 985 -961 1793
-964 1796 -3 4 -37 -4 -76 -17z m4035 -4689 l0 -315 315 0 315 0 0 -270 0
-270 -315 0 -315 0 -2 -317 -3 -318 -270 0 -270 0 -3 318 -2 317 -315 0 -315
0 0 270 0 270 315 0 315 0 0 315 0 315 275 0 275 0 0 -315z"/>
<path d="M10424 5776 c-198 -45 -359 -167 -440 -331 -46 -95 -64 -173 -64
-275 1 -244 125 -447 342 -556 174 -88 396 -85 571 8 75 40 203 163 241 233
200 362 16 806 -377 911 -80 21 -203 26 -273 10z"/>
</g>
</svg>
